<?xml version="1.0" standalone="no"?>
<!DOCTYPE svg PUBLIC "-//W3C//DTD SVG 20010904//EN"
 "http://www.w3.org/TR/2001/REC-SVG-20010904/DTD/svg10.dtd">
<svg version="1.0" xmlns="http://www.w3.org/2000/svg"
 width="256.000000pt" height="256.000000pt" viewBox="0 0 256.000000 256.000000"
 preserveAspectRatio="xMidYMid meet">

<g transform="translate(0.000000,256.000000) scale(0.100000,-0.100000)"
fill="#000000" stroke="none">
<path d="M890 1939 c-206 -281 -378 -517 -382 -523 -6 -11 80 -830 97 -932 3
-17 23 -55 45 -84 l40 -54 288 -118 c158 -65 294 -118 302 -117 8 0 144 53
302 117 l288 118 40 54 c22 29 42 67 45 84 3 17 25 213 50 436 24 223 47 423
50 445 6 40 2 45 -375 560 -210 287 -388 521 -398 523 -12 2 -121 -139 -392
-509z m357 -796 c-2 -2 -107 -2 -234 -1 l-229 3 223 545 c123 300 226 556 231
570 4 14 8 -231 10 -544 1 -313 1 -571 -1 -573z m289 589 c118 -287 220 -538
228 -557 l15 -35 -235 0 -234 0 1 573 c0 314 3 565 6 557 3 -8 102 -250 219
-538z m-582 -33 c-117 -287 -215 -523 -218 -526 -2 -3 -43 47 -91 111 l-86
117 248 337 c340 464 353 482 357 482 2 0 -93 -234 -210 -521z m760 94 l287
-392 -86 -117 c-48 -64 -89 -114 -91 -111 -3 3 -101 240 -219 527 -117 288
-205 514 -196 504 10 -10 147 -195 305 -411z m-1072 -592 l73 -98 -12 -254
c-6 -140 -12 -287 -12 -326 -1 -71 -11 -92 -26 -55 -7 16 -103 832 -98 832 1
0 35 -44 75 -99z m1307 -308 c-25 -225 -49 -416 -54 -426 -15 -36 -25 -15 -26
56 0 39 -6 186 -12 326 l-12 254 73 98 c40 55 74 99 75 99 1 0 -19 -183 -44
-407z m-712 170 c-2 -10 -51 -165 -108 -345 l-103 -328 -143 0 -143 0 0 48 c0
82 21 575 26 610 l5 32 236 0 c219 0 235 -1 230 -17z m557 -15 c5 -35 26 -528
26 -610 l0 -48 -143 0 -143 0 -103 328 c-57 180 -106 335 -108 345 -5 16 11
17 230 17 l236 0 5 -32z m-410 -353 l100 -316 -104 -104 -105 -105 -97 97
c-54 54 -98 102 -98 108 -1 16 194 635 200 635 3 0 50 -142 104 -315z m-284
-421 l65 -65 -50 19 c-88 35 -249 103 -254 107 -2 3 36 5 85 5 l90 0 64 -66z
m600 62 c0 -2 -51 -24 -112 -49 -62 -25 -131 -53 -153 -62 l-40 -17 65 66 64
66 88 0 c48 0 88 -2 88 -4z"/>
</g>
</svg>
